<?xml version="1.0" encoding="UTF-8" standalone="no"?>
<svg width="161px" height="157px" viewBox="0 0 161 157" version="1.1" xmlns="http://www.w3.org/2000/svg" xmlns:xlink="http://www.w3.org/1999/xlink">
    <!-- Generator: Sketch 3.8.3 (29802) - http://www.bohemiancoding.com/sketch -->
    <title>logo</title>
    <desc>Created with Sketch.</desc>
    <defs>
        <path d="M109.118781,0.235676151 C139.448617,11.7749011 161,41.1206529 161,75.5 C161,97.2308284 152.389419,116.950548 138.393975,131.433439 L109.80796,89.1533721 L96.2781692,109.164571 L113.204258,109.164571 L81.075808,156.684065 L48.8254359,109.164571 L65.9431255,109.164571 L52.3882693,89.192091 L23.263577,132.106034 C8.88076972,117.564059 0,97.5691371 0,75.5 C0,40.9347933 21.785033,11.4577537 52.3738886,0.0500914177 L80.8631199,41.8973881 L109.118781,0.235676151 Z" id="path-1"></path>
    </defs>
    <g id="Page-1" stroke="none" stroke-width="1" fill="none" fill-rule="evenodd">
        <g id="Artboard-4-Copy-5" transform="translate(-30.000000, -35.000000)">
            <g id="logo" transform="translate(30.000000, 35.000000)">
                <mask id="mask-2" fill="white">
                    <use xlink:href="#path-1"></use>
                </mask>
                <use id="Mask" fill="#222135" opacity="0.663654384" xlink:href="#path-1"></use>
                <g id="pologons" mask="url(#mask-2)">
                    <g transform="translate(-7.000000, -7.000000)">
                        <polygon id="Path-45" fill="#56546D" points="31.8428214 22.6854493 48.5150138 35.6157315 40.6900624 66.247255 5.04272739 40.8239345"></polygon>
                        <polygon id="Path-45-Copy" fill="#908FA2" points="31.8428214 22.6854493 48.5150138 35.6157315 66.1482261 11.6209685 55.9013656 0.0538057372"></polygon>
                        <polygon id="Path-45-Copy-2" fill="#56546D" points="48.5150138 35.6157315 64.5582782 12.604019 74.9396507 19.1563703"></polygon>
                        <polygon id="Path-45-Copy-3" fill="#45435C" points="48.5150138 35.6157315 56.3699409 61.0888225 67.9521278 23.3483669"></polygon>
                        <polygon id="Path-45-Copy-9" fill="#74728A" points="78.8935462 67.9334194 56.3699409 61.0888225 69.6710092 16.8114583"></polygon>
                        <polygon id="Path-45-Copy-16" fill="#908FA2" points="78.8935462 67.9334194 99.0777837 53.0779835 95.6616155 31.87841 69.6710092 16.8114583"></polygon>
                        <polygon id="Path-45-Copy-17" fill="#45425C" points="78.8935462 67.9334194 99.0777837 53.0779835 104.706185 87.6621281 81.607422 78.2725827"></polygon>
                        <polygon id="Path-45-Copy-27" fill="#222135" points="99.0777837 53.0779835 117.48718 51.5042341 95.6066147 31.8638185"></polygon>
                        <polygon id="Path-45-Copy-28" fill="#342E4A" points="111.797855 6.08280583 117.48718 51.5042341 95.6066147 31.8638185"></polygon>
                        <polygon id="Path-45-Copy-29" fill="#45415C" points="111.797855 6.08280583 117.48718 51.5042341 138.585664 6.08280583"></polygon>
                        <polygon id="Path-45-Copy-30" fill="#56536D" points="166.731431 40.9417612 117.48718 51.5042341 138.585664 6.08280583"></polygon>
                        <polygon id="Path-45-Copy-31" fill="#74728A" points="173.873407 51.5042345 166.731431 40.9417612 117.48718 51.5042341 140.282487 59.8390982"></polygon>
                        <polygon id="Path-45-Copy-32" fill="#908FA2" points="173.873407 51.5042345 178.921411 94.7829783 143.922578 84.4754908 140.282487 59.8390982"></polygon>
                        <polygon id="Path-45-Copy-37" fill="#56526D" points="157.434387 88.4234619 143.922578 84.4754908 139.741335 134.341496"></polygon>
                        <polygon id="Path-45-Copy-38" fill="#342D4A" points="157.434387 88.4234619 192.63814 98.7176389 139.741335 134.341496"></polygon>
                        <polygon id="Path-45-Copy-39" fill="#222135" points="141.792499 144.128947 192.63814 98.7176389 139.741335 134.341496"></polygon>
                        <polygon id="Path-45-Copy-33" fill="#222135" points="117.483337 51.4859619 125.05886 89.6843834 140.282487 59.8390982"></polygon>
                        <polygon id="Path-45-Copy-34" fill="#342E4A" points="143.962523 84.4904177 125.05886 89.6843834 140.282487 59.8390982"></polygon>
                        <polygon id="Path-45-Copy-36" fill="#74728A" points="143.962523 84.4904177 125.05886 89.6843834 140.187251 135.232128"></polygon>
                        <polygon id="Path-45-Copy-26" fill="#342F4A" points="117.490786 51.4720224 99.0777837 53.0779835 104.706185 87.6621281 125.041565 89.6657098"></polygon>
                        <polygon id="Path-45-Copy-18" fill="#34304A" points="77.9381659 106.587307 104.706185 87.6621281 81.607422 78.2725827"></polygon>
                        <polygon id="Path-45-Copy-21" fill="#45425C" points="77.9381659 106.587307 108.867253 116.204342 89.9123977 124.295259"></polygon>
                        <polygon id="Path-45-Copy-23" fill="#342F4A" points="113.478321 145.72072 130.706087 114.741151 110.864121 114.915026 89.9123977 124.295259"></polygon>
                        <polygon id="Path-45-Copy-22" fill="#56536D" points="77.9381659 106.587307 108.404381 116.086102 125.093397 89.6352843 104.690796 87.6470947"></polygon>
                        <polygon id="Path-45-Copy-35" fill="#45415C" points="108.404381 116.086102 125.093397 89.6352843 139.755217 133.789394"></polygon>
                        <polygon id="Path-45-Copy-19" fill="#222135" points="77.9381659 106.587307 48.2937012 113.303528 81.607422 78.2725827"></polygon>
                        <polygon id="Path-45-Copy-20" fill="#56536D" points="77.9381659 106.587307 49.2962316 112.815123 69.6295217 144.265304 89.9628105 124.259441"></polygon>
                        <polygon id="Path-45-Copy-24" fill="#222135" points="113.324079 145.534893 69.6295217 144.265304 89.9628105 124.259441"></polygon>
                        <polygon id="Path-45-Copy-25" fill="#342E4A" points="113.242799 145.39467 69.6295217 144.265304 86.9999994 169.025062"></polygon>
                        <polygon id="Path-45-Copy-10" fill="#56546D" points="78.8935462 67.9334194 56.3699409 61.0888225 81.6464225 78.3422844"></polygon>
                        <polygon id="Path-45-Copy-4" fill="#34324A" points="48.5150138 35.6157315 56.3699409 61.0888225 40.4013043 66.4880937"></polygon>
                        <polygon id="Path-45-Copy-5" fill="#45435C" points="81.6977733 78.3292 56.3699409 61.0888225 40.7041248 66.0803216"></polygon>
                        <polygon id="Path-45-Copy-6" fill="#56546D" points="81.6977733 78.3292 32.7375531 94.1010507 40.7041248 66.0803216"></polygon>
                        <polygon id="Path-45-Copy-7" fill="#908FA2" points="2.69810168 75.9639838 32.7375531 94.1010507 40.7041248 66.0803216"></polygon>
                        <polygon id="Path-45-Copy-12" fill="#56536D" points="30.7759127 121.293819 32.7375531 94.1010507 52.8288619 118.752154"></polygon>
                        <polygon id="Path-45-Copy-15" fill="#45415C" points="81.6284795 78.3307495 32.7375531 94.1010507 48.2676254 113.379593"></polygon>
                        <polygon id="Path-45-Copy-13" fill="#222135" points="30.7759127 121.293819 11.2188891 131.85436 32.7375532 142.414901"></polygon>
                        <polygon id="Path-45-Copy-14" fill="#45425C" points="30.7759127 121.293819 52.2426314 118.795363 32.7375532 142.414901"></polygon>
                        <polygon id="Path-45-Copy-11" fill="#34314A" points="0.901321483 137.566965 2.69810168 75.9639838 32.7375531 94.1010507 30.796723 121.308356"></polygon>
                        <polygon id="Path-45-Copy-8" fill="#45435C" points="2.69810168 75.9639838 5.25189559 40.6361803 40.7341925 66.1093744"></polygon>
                    </g>
                </g>
            </g>
        </g>
    </g>
</svg>